Coordinates
version=1
nRows=13
nColumns=40
inDegrees=yes

Units are S.I. units (second, meters, Newtons, ...)
Angles are in degrees.

endheader
time	pelvis_tilt	pelvis_list	pelvis_rotation	pelvis_tx	pelvis_ty	pelvis_tz	hip_flexion_r	hip_adduction_r	hip_rotation_r	knee_angle_r	knee_angle_r_beta	ankle_angle_r	subtalar_angle_r	mtp_angle_r	hip_flexion_l	hip_adduction_l	hip_rotation_l	knee_angle_l	knee_angle_l_beta	ankle_angle_l	subtalar_angle_l	mtp_angle_l	lumbar_extension	lumbar_bending	lumbar_rotation	arm_flex_r	arm_add_r	arm_rot_r	elbow_flex_r	pro_sup_r	wrist_flex_r	wrist_dev_r	arm_flex_l	arm_add_l	arm_rot_l	elbow_flex_l	pro_sup_l	wrist_flex_l	wrist_dev_l
      0.00000000	      3.16276137	     -3.66521027	      2.11846599	     -1.11593592	      0.89036760	      1.00472469	     -8.33216572	      4.70138068	    -17.93577410	    -17.37068845	     -0.30317571	     13.12916871	      2.88275457	     -3.51182568	     22.22172087	      4.13884291	     10.69712068	    -20.68904061	     -0.36109188	      1.35703170	     -1.40881366	     -4.13238829	    -12.08572877	      3.34011589	      4.94055536	     18.81181086	    -14.53505845	     15.60390341	     22.80300682	     89.95437384	      0.00000000	      0.00000000	     -1.67589485	     10.14824202	    -13.64018297	     19.66427271	     89.95437384	      0.00000000	      0.00000000
      0.01000000	      2.78432890	     -3.84469302	      2.02844894	     -1.10764895	      0.88867278	      1.00463263	     -8.31471095	      4.83830945	    -17.71281254	    -17.74876806	     -0.30977444	     13.18664893	      2.96192840	     -3.64823866	     22.71467338	      4.28604525	     11.00273779	    -18.52039648	     -0.32324190	      1.18031108	     -1.75136329	     -4.24417897	    -11.78963945	      3.51857621	      5.03702389	     19.08468079	    -14.50216451	     15.51621065	     23.24820606	     89.95437384	      0.00000000	      0.00000000	     -2.01782065	     10.04107503	    -13.52325268	     19.56883177	     89.95437384	      0.00000000	      0.00000000
      0.02000000	      2.51464299	     -3.86482761	      1.86260738	     -1.09919671	      0.88724346	      1.00438315	     -8.41031277	      4.75928274	    -17.46573324	    -18.18422778	     -0.31737465	     13.33605666	      2.88912915	     -3.78055129	     22.98017725	      4.31411304	     11.60547404	    -16.47653966	     -0.28756987	      0.88117070	     -2.11051209	     -4.34047786	    -11.61937824	      3.52235444	      5.16031852	     19.33750971	    -14.46602371	     15.53522774	     23.67028821	     89.95437384	      0.00000000	      0.00000000	     -2.25573938	      9.87406051	    -13.35712336	     19.24101535	     89.95437384	      0.00000000	      0.00000000
      0.03000000	      2.48598691	     -3.62474500	      1.52984329	     -1.09027039	      0.88637701	      1.00410348	     -8.77422837	      4.32963025	    -17.11126149	    -18.69483129	     -0.32628636	     13.55136905	      2.81027988	     -4.06932343	     22.71975589	      4.11280387	     12.65067152	    -14.35538590	     -0.25054875	      0.18141630	     -2.47296480	     -4.63256445	    -11.69613895	      3.22703148	      5.42433749	     19.54447027	    -14.40567842	     15.57694136	     23.99090648	     89.95437384	      0.00000000	      0.00000000	     -2.41518591	      9.62306807	    -12.87967598	     18.73356901	     89.95437384	      0.00000000	      0.00000000
      0.04000000	      2.28679879	     -3.68832527	      1.33338565	     -1.08140587	      0.88523743	      1.00374024	     -8.96213405	      4.26121679	    -16.78230297	    -19.11720064	     -0.33365809	     13.41736252	      2.85956865	     -4.20749844	     22.82052652	      4.17630366	     13.00082017	    -12.86789401	     -0.22458712	      0.03394835	     -3.01358939	     -4.83443379	    -11.56649835	      3.28761355	      5.54226784	     19.75111602	    -14.30545587	     15.59673325	     24.19852256	     89.95437384	      0.00000000	      0.00000000	     -2.62715142	      9.39455058	    -12.65398786	     18.33360663	     89.95437384	      0.00000000	      0.00000000
      0.05000000	      2.15669468	     -3.66776217	      1.05470919	     -1.07224036	      0.88433549	      1.00353229	     -9.22138105	      4.08241416	    -16.42623672	    -19.59787691	     -0.34204748	     13.31722303	      2.86350439	     -4.33177515	     22.70005014	      4.18710673	     13.25141823	    -11.59162257	     -0.20231198	     -0.12877408	     -3.60582757	     -5.04595093	    -11.49238418	      3.23003564	      5.69303366	     19.91973780	    -14.12402117	     15.61313264	     24.33044632	     89.95437384	      0.00000000	      0.00000000	     -2.84305540	      9.20794242	    -12.73977777	     17.80135978	     89.95437384	      0.00000000	      0.00000000
      0.06000000	      1.97467712	     -3.75115210	      0.89736003	     -1.06281240	      0.88333826	      1.00312253	     -9.49316325	      4.03070292	    -16.21820263	    -19.93968285	     -0.34801312	     13.20065187	      2.85058623	     -4.35016600	     22.81993418	      4.29353860	     13.25186616	    -11.16159863	     -0.19480665	     -0.02834586	     -3.82471806	     -5.09996714	    -11.32432340	      3.31292308	      5.70473230	     20.00173152	    -13.93299444	     15.60005913	     24.45920667	     89.95437384	      0.00000000	      0.00000000	     -3.10402829	      9.03489521	    -12.77601902	     17.40960731	     89.95437384	      0.00000000	      0.00000000
      0.07000000	      1.88786506	     -3.71949776	      0.52907882	     -1.05310855	      0.88266835	      1.00276601	     -9.78317544	      3.78879104	    -15.65797825	    -20.46967193	     -0.35726317	     12.89294107	      2.88459118	     -4.37718475	     22.65931914	      4.32493699	     12.88447772	    -11.02849769	     -0.19248360	     -0.02743605	     -4.23002331	     -5.20331550	    -11.24587275	      3.25343079	      5.91863789	     20.01661530	    -13.74560563	     15.53971223	     24.53822713	     89.95437384	      0.00000000	      0.00000000	     -3.20074739	      8.77121145	    -12.65555038	     16.75207363	     89.95437384	      0.00000000	      0.00000000
      0.08000000	      1.81334503	     -3.63265524	      0.21303287	     -1.04317315	      0.88208247	      1.00230483	    -10.07711596	      3.47882599	    -15.14030871	    -21.03364840	     -0.36710642	     12.51407350	      2.85836429	     -4.35941799	     22.60175178	      4.29593593	     12.41850165	    -11.60166077	     -0.20248718	     -0.29073325	     -4.35116592	     -5.21858975	    -11.16060804	      3.13005930	      6.02345810	     19.93645341	    -13.52366213	     15.47061012	     24.65989207	     89.95437384	      0.00000000	      0.00000000	     -3.43079222	      8.55717617	    -12.68093627	     16.24623511	     89.95437384	      0.00000000	      0.00000000
      0.09000000	      1.56738098	     -3.56372075	     -0.03239685	     -1.03272540	      0.88124849	      1.00161348	    -10.20165527	      3.17884280	    -14.80113176	    -21.60312157	     -0.37704560	     12.10989978	      2.74628191	     -4.26694812	     22.59964770	      4.23751662	     11.99805909	    -12.31612922	     -0.21495701	     -0.51430347	     -4.19828528	     -5.10209988	    -10.82330888	      3.05567114	      5.97459842	     19.60791696	    -13.33563699	     15.41302694	     25.06353022	     89.95437384	      0.00000000	      0.00000000	     -3.95109394	      8.46190821	    -12.62968607	     16.34540484	     89.95437384	      0.00000000	      0.00000000
      0.10000000	      1.59431700	     -3.38538573	     -0.34438785	     -1.02248314	      0.88097045	      1.00093579	    -10.55418700	      2.77628203	    -14.14934495	    -22.24714245	     -0.38828588	     11.55124661	      2.68608264	     -4.20037346	     22.46974093	      4.08035320	     11.46137889	    -13.64182019	     -0.23809468	     -1.47151820	     -3.79962313	     -4.94061067	    -10.82335772	      2.84041770	      6.07242419	     19.48529874	    -13.10309035	     15.35378887	     24.97022383	     89.95437384	      0.00000000	      0.00000000	     -3.92505854	      8.16890113	    -12.78752930	     15.42615546	     89.95437384	      0.00000000	      0.00000000
      0.11000000	      1.50057559	     -3.23497161	     -0.53740837	     -1.01197607	      0.88087355	      1.00007204	    -10.81526204	      2.44751126	    -13.54526418	    -22.78022473	     -0.39758993	     10.89094675	      2.49436625	     -4.12361967	     22.33091902	      3.91857671	     11.66695550	    -14.31353519	     -0.24981832	     -3.56208715	     -2.83175519	     -4.56607138	    -10.64417528	      2.68003911	      5.99641650	     19.23223520	    -12.79420199	     15.21117571	     24.85019449	     89.95437384	      0.00000000	      0.00000000	     -3.85335205	      7.87299114	    -12.85663998	     14.47387151	     89.95437384	      0.00000000	      0.00000000
      0.12000000	      1.39153472	     -2.69914679	     -0.92418475	     -1.00142005	      0.88116828	      0.99929270	    -10.85265359	      1.64995747	    -12.84249895	    -23.64954202	     -0.41276237	      9.92431091	      1.75952801	     -3.98635313	     21.71192603	      3.29542761	     11.34136413	    -13.97276668	     -0.24387078	     -5.27517052	     -2.15847369	     -4.46841861	    -10.46909597	      2.04934604	      6.10745777	     18.80950932	    -12.45435019	     14.74447067	     24.82574255	     89.95437384	      0.00000000	      0.00000000	     -3.86942837	      7.66262203	    -12.86345832	     13.84400774	     89.95437384	      0.00000000	      0.00000000
